<?xml version="1.0" standalone="no"?>
<!DOCTYPE svg PUBLIC "-//W3C//DTD SVG 20010904//EN"
 "http://www.w3.org/TR/2001/REC-SVG-20010904/DTD/svg10.dtd">
<svg version="1.0" xmlns="http://www.w3.org/2000/svg"
 width="555.580274pt" height="686.836120pt" viewBox="0 0 555.580274 686.836120"
 preserveAspectRatio="xMidYMid meet">
<metadata>
Created by potrace 1.16, written by Peter Selinger 2001-2019
</metadata>
<g transform="translate(-3.002953,691.836120) scale(0.100000,-0.100000)"
fill="#cfe8f2" stroke="none">
<path d="M2519 6905 c-353 -43 -669 -147 -1034 -339 -45 -23 -237 -152 -300
-200 -139 -106 -361 -316 -462 -436 -41 -49 -215 -281 -233 -310 -8 -14 -36
-61 -62 -105 -27 -44 -64 -111 -83 -150 -57 -117 -115 -246 -115 -256 0 -5 -4
-17 -9 -27 -22 -43 -58 -149 -83 -242 -90 -342 -108 -556 -108 -1288 0 -505 8
-704 35 -881 35 -229 101 -428 212 -648 44 -88 73 -134 173 -277 64 -92 151
-187 332 -362 134 -130 213 -191 460 -353 100 -67 188 -125 193 -129 6 -4 84
-54 175 -111 91 -57 206 -129 255 -161 135 -86 461 -292 498 -314 17 -11 82
-52 142 -90 218 -140 283 -176 314 -176 26 0 74 28 361 215 105 68 401 253
480 300 28 17 114 71 191 120 77 50 161 103 187 119 26 16 79 51 119 78 39 26
76 48 81 48 6 0 12 4 14 8 2 4 37 30 78 57 359 236 595 440 778 675 200 256
344 543 410 820 20 82 25 110 54 300 18 121 18 1375 0 1545 -25 232 -67 454
-102 540 -5 11 -15 43 -23 70 -72 246 -219 541 -396 796 -25 35 -47 66 -51 69
-3 3 -23 27 -44 55 -63 83 -221 257 -287 315 -474 418 -969 647 -1568 726
-130 17 -436 16 -582 -1z m585 -296 c126 -11 247 -37 411 -89 55 -18 111 -35
125 -40 233 -73 502 -230 715 -415 380 -331 593 -624 754 -1040 24 -60 47
-119 51 -130 55 -130 119 -410 136 -595 8 -88 6 -1317 -2 -1435 -6 -86 -28
-225 -44 -286 -17 -62 -48 -158 -64 -192 -7 -18 -28 -70 -46 -117 -44 -113
-115 -231 -248 -408 -80 -107 -233 -260 -407 -408 -61 -52 -280 -214 -290
-214 -2 0 -51 -31 -107 -69 -120 -80 -179 -111 -209 -111 -13 0 -52 30 -103
78 -44 43 -99 91 -121 107 -22 17 -76 62 -120 101 -68 60 -168 145 -269 229
-62 51 -297 257 -320 280 -29 29 -52 135 -36 165 10 19 68 30 154 30 72 0 88
14 89 78 1 77 -12 86 -131 92 l-97 5 -15 43 c-13 38 -13 46 1 70 15 27 17 27
116 27 69 0 106 4 115 13 7 7 12 35 12 68 -2 80 -12 87 -131 92 -75 3 -101 8
-110 20 -9 11 -13 65 -13 187 0 180 8 215 49 215 36 0 223 85 296 135 44 29
88 32 113 8 10 -10 33 -30 52 -44 19 -15 65 -55 102 -91 52 -49 66 -68 62 -84
-3 -12 -39 -58 -80 -103 -48 -53 -74 -90 -74 -105 0 -25 69 -96 93 -96 7 0 53
40 102 90 49 49 97 90 107 90 10 0 32 -13 49 -28 44 -39 36 -60 -58 -161 -95
-102 -101 -112 -79 -146 18 -27 72 -65 93 -65 13 0 47 32 145 138 73 78 81 80
121 27 17 -23 16 -26 -17 -97 -43 -92 -56 -148 -56 -239 0 -123 30 -243 87
-345 27 -49 97 -130 124 -144 39 -22 119 48 119 104 0 16 -17 47 -45 81 -53
66 -66 90 -94 174 -29 89 -28 175 3 246 17 37 31 55 43 55 10 0 59 -40 108
-88 107 -103 223 -202 236 -202 38 0 105 86 95 123 -5 22 -105 122 -240 240
-36 32 -66 65 -66 73 0 19 43 39 113 54 46 9 73 9 125 -1 73 -13 172 -57 212
-94 27 -24 63 -45 78 -45 5 0 28 18 51 40 56 54 56 86 -1 134 -98 84 -241 144
-363 153 -101 7 -164 -6 -273 -57 -91 -43 -113 -44 -138 -5 -22 34 -13 53 67
141 77 85 84 108 44 159 -44 59 -58 55 -164 -50 -52 -52 -99 -95 -103 -95 -18
0 -46 20 -62 45 -22 33 -13 50 75 141 38 40 69 77 69 83 0 40 -65 111 -100
111 -10 0 -55 -40 -101 -90 -57 -62 -90 -90 -105 -90 -13 0 -44 19 -71 41 -79
68 -193 179 -193 189 0 5 15 44 34 87 19 43 47 119 62 170 22 71 33 93 49 97
11 3 97 6 190 6 227 0 215 9 215 -164 0 -152 -4 -146 86 -146 49 0 55 2 64 26
6 15 7 72 4 138 -8 135 -2 146 79 146 29 0 57 -4 64 -8 7 -5 12 -53 15 -140 3
-119 5 -135 22 -148 26 -19 96 -18 124 2 22 15 23 21 21 146 -1 102 1 132 12
139 17 11 119 12 136 1 7 -5 12 -53 15 -140 3 -152 4 -152 85 -152 75 0 83 15
83 162 0 140 -1 138 119 138 120 0 151 23 151 110 0 53 -16 60 -145 60 -125 0
-119 -7 -128 143 -7 127 -19 147 -86 147 -70 0 -75 -10 -81 -159 l-5 -126 -69
-3 c-38 -2 -73 1 -79 7 -5 5 -10 62 -11 126 -1 110 -2 118 -25 136 -30 24 -82
24 -112 0 -22 -18 -24 -28 -29 -143 l-5 -123 -59 -3 c-89 -5 -96 5 -96 143 0
73 -4 115 -12 123 -14 14 -77 16 -111 3 -25 -10 -25 -13 -29 -131 -2 -94 -6
-123 -18 -130 -18 -11 -380 -13 -396 -2 -6 4 -25 57 -42 117 -17 61 -43 133
-57 160 -40 79 -42 74 90 191 74 66 130 104 154 104 5 0 47 -43 93 -95 46 -52
91 -98 101 -101 21 -7 91 36 106 64 12 22 -4 57 -50 111 -71 84 -99 124 -99
141 0 19 66 80 87 80 6 0 33 -26 60 -57 26 -31 66 -77 89 -102 l41 -44 37 22
c71 44 74 92 13 172 -23 30 -55 72 -71 93 -25 31 -27 40 -18 61 6 13 25 31 42
40 29 15 32 15 73 -13 87 -60 155 -86 268 -103 63 -9 90 -8 154 5 79 16 227
76 258 103 25 23 21 63 -12 115 -35 55 -46 55 -176 -9 -16 -8 -73 -17 -125
-20 -105 -6 -187 10 -231 46 -21 17 -22 21 -10 44 7 14 34 40 60 58 25 18 85
71 134 118 103 100 107 116 49 181 -49 55 -56 52 -181 -58 -53 -48 -119 -106
-145 -130 -27 -23 -54 -41 -60 -39 -6 2 -20 21 -31 43 -16 32 -19 59 -19 149
1 96 4 117 26 167 14 31 51 83 82 117 31 33 56 66 56 73 0 19 -40 72 -73 95
-27 20 -33 21 -58 8 -15 -8 -48 -38 -73 -67 -149 -170 -190 -452 -96 -653 34
-72 29 -105 -18 -129 -28 -14 -32 -14 -53 3 -13 10 -51 55 -84 99 -79 106 -92
113 -145 78 -22 -15 -46 -38 -52 -51 -10 -22 -6 -31 36 -82 86 -107 128 -172
121 -192 -7 -24 -72 -74 -88 -68 -6 2 -53 50 -103 108 -50 57 -100 105 -111
107 -13 2 -34 -12 -61 -42 -23 -25 -42 -50 -42 -55 0 -5 36 -55 79 -110 44
-56 83 -111 87 -123 7 -25 0 -32 -170 -169 -86 -70 -101 -78 -115 -66 -77 65
-253 149 -335 160 -27 4 -55 12 -62 18 -21 18 -20 392 1 409 8 7 60 16 116 20
69 4 105 11 115 22 21 20 29 90 15 117 -11 19 -19 21 -121 21 -101 0 -110 2
-124 22 -18 26 -20 61 -6 89 9 17 22 19 100 19 49 0 100 4 114 10 24 9 26 14
26 74 0 62 -1 66 -30 81 -19 10 -57 15 -113 15 -51 0 -88 5 -95 12 -7 7 -12
36 -12 65 0 44 5 59 25 78 13 14 36 25 50 25 96 0 312 185 381 327 39 78 47
117 51 239 5 127 1 133 -72 142 -68 7 -95 -15 -95 -77 0 -68 -34 -194 -70
-256 -47 -82 -156 -174 -226 -189 -27 -6 -32 -4 -38 16 -3 13 -6 125 -6 250
l0 228 -25 16 c-28 18 -106 14 -131 -7 -11 -9 -14 -60 -14 -236 0 -231 -5
-263 -40 -263 -26 0 -115 50 -153 86 -38 36 -107 123 -107 135 0 5 -9 28 -19
52 -11 23 -25 74 -31 112 -16 93 -25 114 -56 125 -26 10 -70 4 -91 -13 -18
-13 -17 -181 1 -250 27 -105 96 -206 213 -317 79 -75 131 -105 207 -119 26 -5
53 -14 59 -20 6 -6 13 -39 15 -74 6 -88 -5 -97 -101 -90 -46 4 -88 1 -110 -6
l-37 -13 0 -74 0 -74 109 0 c125 0 141 -8 141 -67 0 -64 -18 -73 -142 -73
l-108 0 -1 -32 c-1 -44 2 -112 6 -116 1 -2 47 -7 101 -13 162 -15 144 12 144
-217 0 -108 -4 -202 -8 -209 -4 -6 -32 -16 -63 -21 -83 -16 -170 -54 -266
-118 l-86 -57 -32 17 c-43 24 -255 216 -255 232 0 7 35 49 78 94 99 105 122
141 102 165 -27 33 -100 76 -113 68 -8 -4 -45 -44 -84 -88 -102 -116 -117
-129 -140 -117 -10 6 -31 24 -46 40 -26 27 -27 33 -16 53 6 13 15 26 18 29 16
13 130 148 145 172 l18 28 -43 44 c-75 76 -79 75 -203 -71 -42 -51 -85 -93
-94 -93 -23 0 -62 40 -62 64 0 12 7 34 15 50 41 79 57 150 56 261 0 96 -4 122
-31 204 -17 52 -40 112 -51 133 -26 52 -132 158 -157 158 -28 0 -102 -77 -102
-107 0 -12 15 -40 33 -60 88 -99 137 -207 137 -300 0 -83 -38 -203 -65 -203
-13 0 -64 38 -95 71 -26 27 -143 124 -193 159 -40 29 -52 32 -74 24 -33 -11
-94 -89 -87 -109 6 -14 129 -124 246 -218 68 -56 77 -71 54 -96 -32 -35 -118
-54 -229 -49 -94 3 -108 7 -176 41 -40 20 -82 37 -92 37 -20 0 -79 -91 -79
-122 0 -24 33 -52 99 -84 58 -28 71 -32 185 -59 71 -18 89 -17 241 17 61 13
82 22 164 71 l64 38 34 -33 c18 -17 33 -40 33 -50 0 -14 -114 -158 -141 -178
-17 -13 -9 -90 9 -90 4 0 21 -14 39 -30 18 -17 36 -30 42 -30 6 0 35 31 66 70
71 89 124 140 145 140 9 0 31 -16 50 -35 41 -42 39 -49 -54 -154 -80 -92 -94
-116 -80 -139 16 -25 74 -62 97 -62 19 0 68 45 154 143 23 26 48 47 56 47 26
0 287 -213 287 -234 0 -7 -13 -37 -29 -67 -28 -52 -91 -228 -91 -254 0 -22
-27 -25 -219 -25 -132 0 -191 4 -199 12 -8 8 -12 50 -12 124 0 119 -5 135 -51
149 -28 9 -84 -2 -99 -20 -6 -7 -14 -64 -17 -127 -3 -62 -10 -119 -16 -125
-15 -20 -112 -17 -128 3 -9 11 -16 54 -19 122 -5 99 -7 105 -33 128 -28 24
-79 32 -103 16 -8 -4 -13 -52 -15 -128 -3 -83 -8 -126 -18 -137 -16 -20 -110
-24 -129 -5 -8 8 -12 50 -12 123 0 123 -12 155 -56 155 -61 0 -97 -59 -109
-178 -11 -116 -6 -112 -143 -112 -78 0 -122 -4 -130 -12 -12 -12 -17 -114 -6
-142 5 -13 26 -16 123 -16 64 0 123 -4 131 -10 11 -6 15 -40 20 -134 6 -144
10 -152 86 -161 79 -11 84 -1 84 156 l0 129 27 11 c28 11 108 7 120 -5 4 -4 9
-68 11 -144 3 -87 8 -140 16 -144 19 -13 101 -9 122 6 17 13 19 27 19 141 0
145 5 155 81 155 75 0 74 1 75 -129 1 -64 4 -129 8 -146 6 -29 8 -30 69 -33
39 -2 69 2 78 9 11 9 14 42 14 145 0 122 2 134 19 144 21 11 328 14 380 4 17
-4 31 -12 31 -19 0 -30 56 -176 96 -253 52 -97 52 -96 -46 -175 -35 -28 -88
-73 -117 -99 -29 -27 -59 -48 -67 -48 -7 0 -50 41 -96 90 -59 64 -90 90 -106
90 -26 0 -104 -64 -104 -86 0 -7 25 -42 56 -76 75 -83 106 -131 98 -151 -3 -9
-20 -27 -38 -41 l-33 -25 -36 24 c-19 14 -63 58 -97 100 -34 42 -69 75 -79 75
-9 0 -36 -16 -59 -36 -57 -49 -55 -71 11 -142 106 -114 123 -148 90 -184 -25
-28 -57 -22 -161 29 l-95 48 -126 -1 c-111 0 -134 -3 -193 -27 -37 -14 -94
-44 -125 -65 -56 -38 -133 -109 -133 -123 0 -17 94 -119 110 -119 10 0 49 24
86 53 133 104 245 131 363 87 102 -37 97 -47 -104 -225 -145 -128 -146 -128
-89 -193 29 -33 53 -52 67 -52 15 0 71 48 165 140 85 84 150 140 162 140 42 0
80 -93 80 -195 0 -97 -30 -177 -98 -262 -30 -37 -58 -77 -62 -88 -10 -26 12
-64 55 -94 54 -37 92 -16 170 94 52 74 74 128 91 225 28 156 16 266 -45 393
-34 71 -33 84 7 120 26 24 46 14 98 -50 129 -159 156 -172 218 -103 20 22 36
46 36 53 0 19 -25 53 -107 143 -40 45 -73 89 -73 97 0 16 64 77 81 77 6 0 25
-15 43 -33 17 -18 57 -61 90 -95 32 -34 66 -62 76 -62 25 0 100 69 100 92 0
21 -30 62 -114 153 -25 28 -46 57 -46 66 0 36 217 229 258 229 13 0 36 -9 51
-19 77 -55 264 -141 307 -141 50 0 54 -17 54 -215 0 -221 4 -215 -125 -213
-121 2 -125 0 -125 -81 0 -84 10 -90 126 -83 106 6 124 -3 124 -65 0 -72 -16
-83 -122 -83 -118 0 -128 -6 -128 -75 0 -80 18 -95 114 -95 124 0 144 -17 131
-113 -7 -47 -13 -58 -74 -117 -36 -36 -134 -122 -216 -192 -83 -70 -181 -155
-220 -189 -38 -34 -105 -91 -149 -128 -43 -36 -112 -96 -153 -132 -41 -37 -91
-79 -113 -94 -35 -24 -42 -26 -74 -15 -20 6 -98 52 -173 101 -76 49 -154 99
-173 111 -34 22 -60 42 -245 184 -173 133 -411 384 -515 544 -48 75 -180 339
-180 361 0 8 -4 19 -9 24 -9 11 -44 145 -60 235 -27 146 -32 184 -39 305 -10
149 -8 1257 2 1355 17 164 41 304 75 425 28 103 35 124 48 160 8 22 20 54 28
70 7 17 18 46 26 65 38 105 168 356 240 462 146 220 297 399 419 498 51 41
113 94 139 118 203 190 519 356 856 450 116 32 256 62 335 71 109 12 466 12
604 0z m-380 -2335 c3 -9 6 -78 6 -154 0 -143 -4 -170 -24 -170 -7 0 -41 27
-76 60 -36 33 -84 74 -107 92 -64 51 -68 62 -35 98 31 34 151 88 198 89 20 1
34 -5 38 -15z m331 -18 c41 -19 86 -46 100 -60 26 -26 26 -27 8 -50 -27 -36
-221 -196 -237 -196 -21 0 -26 33 -26 181 0 92 4 139 12 147 20 20 66 13 143
-22z m-650 -276 c98 -72 165 -138 165 -160 0 -19 -8 -20 -154 -20 -195 0 -190
-5 -153 128 13 47 49 102 67 102 4 0 38 -23 75 -50z m927 28 c26 -40 60 -144
56 -174 l-3 -29 -163 -3 -163 -3 3 23 c4 30 213 208 243 208 7 0 19 -10 27
-22z m-788 -394 c15 -14 14 -18 -3 -40 -24 -30 -193 -184 -203 -184 -20 0 -98
160 -98 202 0 29 35 37 167 37 98 1 125 -2 137 -15z m830 10 c19 -7 21 -51 5
-91 -36 -88 -61 -134 -75 -140 -11 -4 -47 26 -120 98 -57 57 -104 109 -104
116 0 6 15 14 33 16 54 7 244 7 261 1z m-329 -226 c139 -134 143 -147 63 -195
-70 -41 -142 -73 -167 -73 -11 0 -25 9 -31 19 -11 22 -14 343 -3 354 13 14 27
4 138 -105z m-317 -59 c1 -85 0 -164 -3 -176 -8 -32 -41 -30 -120 6 -83 38
-125 68 -125 89 0 22 218 244 233 239 8 -2 13 -52 15 -158z m266 -1782 c34
-30 84 -71 112 -93 150 -115 543 -474 566 -518 9 -16 5 -24 -23 -47 -19 -16
-39 -29 -45 -29 -6 0 -19 -9 -29 -20 -10 -11 -22 -20 -26 -20 -5 0 -29 -15
-54 -34 -24 -19 -100 -67 -167 -107 -68 -40 -169 -104 -225 -141 -118 -78
-157 -102 -232 -139 -67 -33 -63 -35 -244 79 -174 110 -295 185 -389 241 -40
25 -89 58 -109 73 -20 15 -39 28 -42 28 -14 0 -129 83 -134 98 -5 11 14 35 63
80 96 91 441 391 641 559 73 61 73 61 73 -246 0 -307 -5 -291 85 -291 89 0 85
-15 85 285 0 145 3 270 6 279 10 25 23 20 88 -37z"/>
</g>
</svg>
