<?xml version="1.0" standalone="no"?>
<!DOCTYPE svg PUBLIC "-//W3C//DTD SVG 20010904//EN"
 "http://www.w3.org/TR/2001/REC-SVG-20010904/DTD/svg10.dtd">
<svg version="1.0" xmlns="http://www.w3.org/2000/svg"
 width="600.000000pt" height="400.000000pt" viewBox="0 0 600.000000 400.000000"
 preserveAspectRatio="xMidYMid meet">
<metadata>
Created by potrace 1.16, written by Peter Selinger 2001-2019
</metadata>
<g transform="translate(0.000000,400.000000) scale(0.100000,-0.100000)"
fill="#000000" stroke="none">
<path d="M4491 3965 c-34 -38 -52 -43 -71 -21 -6 8 -17 13 -25 10 -7 -3 -16
-1 -19 5 -9 14 -66 -17 -66 -38 0 -9 6 -25 14 -36 7 -11 14 -39 14 -62 1 -49
19 -120 32 -128 20 -13 11 -87 -15 -121 -40 -53 -152 -114 -207 -114 -45 0
-47 1 -59 38 -18 58 -72 88 -94 52 -3 -5 -11 -7 -18 -4 -22 8 -50 -32 -43 -60
5 -19 -1 -33 -24 -60 -17 -19 -30 -41 -29 -48 6 -29 -23 -88 -45 -94 -66 -16
-109 -1 -124 44 -25 75 -153 187 -201 175 -13 -3 -26 -2 -30 3 -16 23 -90 32
-107 13 -28 -31 -20 -138 15 -213 16 -33 31 -73 35 -88 3 -16 13 -28 21 -28
33 0 50 -60 48 -165 -2 -57 2 -112 9 -128 8 -21 8 -31 -1 -40 -8 -8 -11 -7
-11 4 0 8 -9 31 -20 52 -11 21 -27 72 -35 114 -8 42 -20 80 -26 84 -7 4 -24
31 -38 59 -21 43 -33 55 -64 65 -57 19 -65 29 -61 80 6 66 -18 120 -47 105
-27 -15 -34 -7 -19 20 26 49 -28 101 -62 59 -20 -24 -20 -24 -14 0 6 28 -9 61
-28 61 -7 0 -16 -13 -19 -30 -7 -35 -24 -40 -29 -8 -7 50 -76 7 -97 -61 -14
-49 -19 -53 -85 -54 -70 -3 -88 -18 -85 -75 3 -38 0 -46 -18 -53 -32 -12 -36
-26 -16 -57 68 -98 61 -296 -8 -250 -18 11 -28 12 -41 5 -25 -16 -44 6 -51 58
-9 62 -31 101 -67 117 -16 7 -30 16 -30 19 0 3 -11 23 -25 44 -15 20 -24 39
-21 42 2 2 -18 48 -45 101 -59 115 -62 116 -164 76 -11 -4 -26 -8 -34 -8 -18
-1 -39 -83 -29 -116 4 -14 17 -56 29 -95 12 -38 23 -90 24 -115 2 -25 4 -45 5
-45 5 0 14 -64 14 -95 -1 -133 -44 -190 -143 -190 -45 0 -46 2 -42 72 3 41
-15 57 -43 41 -37 -20 -124 -135 -130 -171 -17 -108 -17 -118 3 -176 25 -70
25 -76 6 -76 -17 0 -39 40 -50 87 -14 68 -25 42 -25 -61 0 -58 -4 -107 -10
-111 -5 -3 -6 -15 -1 -28 15 -41 23 -117 12 -117 -6 0 -13 12 -16 28 -3 15
-14 56 -25 92 -10 36 -21 98 -23 138 -3 44 -10 79 -19 90 -8 9 -18 25 -21 34
-6 16 -10 15 -49 -7 -58 -33 -66 -31 -27 7 81 82 93 212 13 149 -43 -34 -57
-26 -28 16 31 46 17 63 -51 63 -58 0 -76 16 -77 69 0 33 -7 51 -24 68 -21 21
-22 24 -7 30 11 4 22 -1 32 -16 69 -99 114 -119 151 -69 24 33 20 57 -10 65
-28 7 -25 17 10 30 38 14 57 59 59 132 1 66 -11 84 -46 70 -35 -13 -41 -4 -12
20 30 25 12 27 -57 6 -59 -18 -54 -17 -54 -5 0 15 51 37 103 45 51 8 51 8 37
35 -8 14 -20 19 -51 17 -41 -1 -74 22 -45 33 14 5 6 43 -12 54 -18 11 -48 -20
-34 -37 10 -12 8 -19 -8 -38 -20 -24 -20 -24 -14 8 5 27 3 32 -17 35 -26 3
-45 68 -29 98 19 36 -93 110 -134 88 -19 -10 -19 -9 2 15 31 33 16 73 -23 63
-13 -3 -26 -2 -30 3 -3 5 -23 8 -45 6 -42 -4 -48 8 -42 86 1 9 -19 40 -43 68
-25 29 -45 58 -45 65 0 7 -9 21 -21 32 -20 18 -20 18 -15 -9 7 -38 -7 -41 -39
-7 -34 35 -41 37 -50 10 -10 -30 -43 -45 -63 -28 -45 37 -136 59 -117 28 5 -8
-54 -30 -82 -30 -21 0 -15 -14 19 -42 33 -27 33 -27 11 -49 -19 -19 -26 -21
-47 -11 -23 10 -36 7 -36 -9 0 -4 20 -19 45 -33 52 -31 103 -26 120 11 5 12
19 26 32 32 26 12 31 0 8 -19 -20 -16 -19 -30 1 -30 9 0 29 14 44 30 15 17 36
30 47 30 17 -1 17 -1 1 -14 -10 -7 -18 -20 -18 -29 0 -9 -4 -19 -10 -22 -17
-11 -11 -20 21 -32 29 -11 34 -10 61 17 42 42 57 26 16 -17 l-33 -36 53 7 c56
7 66 -7 13 -17 -16 -3 -35 -13 -44 -21 -13 -13 -22 -12 -82 11 -54 22 -70 25
-83 15 -9 -7 -29 -17 -44 -23 -54 -21 -6 -103 80 -135 26 -10 71 -35 101 -56
49 -34 56 -37 71 -23 26 23 32 18 15 -15 -19 -37 -19 -64 0 -80 8 -7 17 -28
21 -49 4 -20 11 -44 16 -55 7 -12 7 -26 0 -40 -6 -11 -13 -33 -16 -48 -7 -30
-61 -98 -79 -98 -5 0 -3 8 5 18 34 38 72 152 51 152 -5 0 -14 14 -21 32 -6 17
-14 29 -17 26 -7 -6 -42 -98 -57 -148 -6 -19 -13 -29 -15 -23 -3 7 3 37 11 67
23 77 20 117 -9 160 -14 20 -25 41 -25 45 0 11 -40 22 -52 15 -4 -3 -8 -40 -8
-82 -1 -49 -6 -86 -15 -102 -14 -23 -15 -20 -10 45 4 61 4 67 -7 44 -17 -34
-68 -94 -68 -79 0 7 11 25 25 42 14 16 24 39 24 51 -1 17 -2 18 -6 5 -9 -34
-24 -18 -17 17 4 23 2 35 -5 35 -6 0 -11 -6 -11 -13 0 -17 -59 -85 -60 -69 0
8 10 27 21 44 23 31 28 68 15 106 -9 28 -17 28 -46 -3 -25 -26 -51 -35 -31
-11 22 26 9 79 -23 96 -16 8 -40 25 -53 37 -40 36 -74 38 -121 7 -49 -32 -51
-40 -17 -48 13 -3 38 -20 55 -36 34 -33 26 -41 -10 -10 -25 22 -32 23 -79 14
-32 -7 -32 -7 -4 -36 15 -16 42 -38 60 -49 17 -11 40 -38 52 -61 l20 -41 -32
31 c-37 35 -163 96 -183 88 -17 -7 -28 -49 -20 -81 7 -27 138 -145 162 -145 8
0 22 -7 30 -15 9 -8 24 -15 34 -15 10 0 38 -12 61 -26 44 -26 44 -26 9 -19
-101 20 -115 24 -118 34 -2 6 -18 11 -36 11 -19 0 -46 11 -66 25 -79 58 -134
13 -88 -73 48 -87 197 -132 292 -87 43 20 46 19 39 -16 -5 -25 -10 -27 -71
-34 -36 -4 -71 -9 -79 -12 -40 -16 18 -63 79 -63 l33 -1 -32 -14 c-24 -10 -31
-18 -27 -30 6 -14 1 -15 -28 -10 -27 5 -37 3 -41 -9 -10 -26 -27 -18 -25 12 3
35 -36 88 -82 112 -80 41 -113 60 -129 74 -29 26 -77 31 -83 9 -11 -45 21
-111 71 -145 27 -18 62 -49 77 -68 28 -33 28 -34 4 -17 -60 42 -130 68 -130
47 0 -22 102 -140 121 -140 10 0 19 -4 19 -10 0 -21 -50 -9 -82 20 -18 17 -37
30 -43 30 -6 0 -22 10 -35 23 -13 12 -42 34 -64 49 -41 28 -41 28 -58 -5 -9
-17 -17 -44 -18 -59 0 -16 -6 -28 -13 -28 -23 0 -71 -57 -55 -66 16 -11 20
-11 93 -2 74 8 200 -40 190 -73 -14 -43 106 -47 142 -4 14 16 41 31 65 37 23
5 54 18 69 29 22 16 33 18 48 9 52 -27 103 -2 85 44 -7 19 23 69 36 61 6 -4
10 -14 10 -24 0 -46 74 -27 77 20 2 26 23 51 23 28 1 -51 49 -37 50 16 0 18 1
18 16 3 14 -14 14 -19 -5 -57 -14 -27 -17 -41 -9 -41 6 0 22 -10 35 -22 30
-28 37 -20 25 28 -21 83 -23 106 -8 101 7 -3 19 0 25 6 14 14 14 2 1 -23 -11
-20 15 -110 31 -110 5 0 10 18 10 40 3 101 23 90 22 -12 0 -24 14 -23 27 3 8
14 8 34 2 65 -5 24 -6 46 -2 49 12 7 42 -81 40 -117 -3 -48 -1 -52 15 -38 8 7
15 24 15 39 1 23 2 24 14 9 12 -16 13 -16 26 3 18 24 34 25 21 0 -6 -10 -8
-21 -4 -24 10 -11 60 21 66 42 2 10 14 24 26 31 22 11 22 11 1 -29 -22 -44
-49 -66 -93 -77 -43 -10 -45 -33 -6 -65 19 -16 42 -29 51 -29 20 0 60 61 62
95 1 33 12 32 30 -2 11 -20 15 -23 16 -10 0 32 49 -10 50 -44 0 -21 86 -37
103 -20 23 23 29 10 7 -14 -15 -16 -34 -25 -55 -25 -18 0 -42 -9 -55 -20 -13
-11 -27 -20 -32 -20 -4 0 -26 -16 -48 -36 -22 -20 -67 -49 -100 -65 -33 -15
-60 -33 -60 -39 0 -6 -16 -24 -35 -41 -35 -31 -45 -63 -22 -72 8 -3 6 -10 -8
-21 -20 -15 -20 -15 5 -17 14 -1 29 -1 34 0 5 1 32 -9 60 -23 67 -32 129 -45
153 -33 48 25 91 60 101 82 13 28 47 33 56 9 11 -29 6 -54 -20 -106 -18 -35
-22 -54 -15 -61 28 -28 -5 -42 -83 -37 -42 3 -84 2 -94 -1 -9 -4 -21 -4 -27 0
-80 53 -267 21 -234 -40 14 -27 5 -23 -29 11 -19 19 -28 37 -25 48 9 37 -21
44 -52 12 -16 -17 -23 -30 -17 -30 7 0 12 -4 12 -10 0 -5 -5 -10 -12 -10 -6 0
-20 -8 -30 -17 -14 -13 -21 -14 -30 -5 -21 21 -45 13 -58 -18 -7 -17 -16 -30
-21 -30 -5 0 -7 -11 -3 -25 7 -30 -6 -33 -23 -5 -10 15 -9 25 5 50 15 27 15
32 2 40 -31 21 -45 7 -48 -48 -2 -41 -7 -52 -20 -52 -22 1 -52 24 -52 41 0 10
-3 10 -12 1 -7 -7 -24 -12 -40 -12 -17 0 -31 -7 -38 -20 -6 -11 -17 -20 -24
-20 -8 0 -20 -7 -27 -16 -16 -19 -84 -12 -111 13 -17 16 -57 0 -120 -49 -24
-18 44 -162 88 -184 46 -24 113 -9 121 28 8 43 36 58 80 45 33 -10 37 -9 51
11 17 26 48 28 118 7 27 -8 63 -14 79 -14 17 0 54 -2 83 -4 29 -1 55 -1 58 2
13 13 43 9 59 -9 18 -20 42 -17 61 9 8 9 17 12 30 6 10 -4 25 -7 33 -6 9 2 12
-4 8 -18 -4 -16 1 -21 24 -26 37 -8 36 -22 -1 -73 -22 -31 -26 -42 -15 -42 8
0 15 5 15 12 0 9 3 9 12 0 9 -9 7 -16 -7 -32 -14 -16 -16 -23 -7 -32 7 -7 12
-27 12 -44 0 -38 14 -51 36 -33 19 16 24 10 30 -37 12 -84 52 -123 74 -73 4 8
12 24 18 36 7 13 12 30 12 38 0 20 18 19 22 -1 3 -14 7 -13 31 6 15 12 31 20
34 16 3 -3 19 6 36 20 33 28 50 25 23 -4 -9 -11 -14 -26 -10 -36 4 -11 1 -16
-12 -16 -33 0 -83 -38 -90 -67 -4 -15 -13 -41 -21 -56 -17 -34 -2 -63 25 -48
20 11 52 2 52 -15 0 -9 -11 -14 -28 -14 -25 0 -110 -68 -89 -71 4 -1 10 -2 15
-3 4 -1 13 -5 20 -10 23 -14 63 4 116 53 65 61 85 72 133 67 51 -5 93 -17 93
-25 0 -18 -49 -33 -77 -24 -35 13 -75 0 -67 -21 4 -10 -3 -15 -22 -18 -20 -2
-41 -19 -71 -56 -41 -51 -48 -80 -16 -68 9 4 17 -1 20 -14 4 -13 14 -20 31
-20 25 0 25 -1 6 -15 -13 -10 -15 -14 -5 -15 8 0 3 -10 -14 -26 -15 -14 -31
-21 -34 -16 -3 5 -17 8 -31 7 -14 -1 -30 1 -35 6 -6 4 -17 4 -25 -1 -13 -8
-13 -10 1 -10 14 0 49 -39 49 -54 0 -3 -13 -3 -30 1 -33 6 -40 -7 -14 -28 17
-14 -14 -48 -46 -49 -8 0 -24 -7 -34 -15 -11 -8 -28 -13 -38 -9 -27 8 -85 -16
-96 -41 -17 -37 -92 -15 -92 27 0 24 -65 92 -80 83 -5 -3 -10 -24 -10 -46 0
-22 -5 -50 -11 -62 -10 -18 -8 -24 16 -44 25 -22 26 -25 11 -36 -22 -16 -29
-144 -9 -151 7 -3 15 0 19 5 4 6 20 8 37 5 16 -3 36 -1 43 5 7 5 24 11 38 13
13 1 32 9 41 16 12 10 24 11 54 1 56 -16 190 -14 225 4 38 20 72 19 88 -3 21
-30 32 -32 84 -16 27 9 61 16 76 16 17 -1 28 6 31 19 3 11 14 19 25 19 12 0
24 5 27 10 3 6 1 10 -4 10 -6 0 -11 8 -11 18 0 21 39 43 73 41 17 -1 18 -2 5
-6 -27 -7 -24 -64 5 -89 32 -29 74 -54 90 -54 7 0 34 -13 60 -30 l46 -29 31
30 c16 17 30 36 30 42 0 8 4 7 9 -2 13 -20 -7 -71 -31 -80 -18 -6 -16 -10 19
-33 21 -14 56 -43 78 -64 202 -195 229 -213 256 -162 12 22 12 22 20 0 6 -17
16 -22 43 -22 81 0 147 -22 354 -116 29 -13 65 -24 80 -24 15 0 33 -5 40 -12
8 -8 15 -8 25 0 14 12 55 11 76 -2 30 -19 145 -10 221 16 41 14 90 29 108 33
17 3 32 8 32 10 0 1 -7 19 -16 40 -8 20 -13 40 -10 43 3 3 1 11 -5 19 -9 10
-8 13 3 13 23 0 48 -34 48 -64 0 -54 74 -31 147 46 51 53 60 88 23 88 -17 0
-30 5 -30 10 0 6 15 10 34 10 30 0 37 6 60 44 14 24 38 52 53 62 43 29 91 54
111 58 9 1 31 9 47 16 17 7 73 16 125 19 94 6 94 6 105 51 11 45 11 45 20 15
4 -16 7 -36 6 -42 -1 -7 3 -13 10 -13 7 0 9 11 5 33 -18 96 -19 110 -8 103 7
-4 12 -16 12 -27 0 -10 6 -19 13 -19 6 0 22 -14 33 -31 22 -30 22 -30 28 -5 4
17 15 26 37 31 78 17 209 127 209 176 0 5 7 9 16 9 9 0 50 34 92 76 70 70 155
124 195 124 7 0 19 13 28 29 13 22 31 33 80 48 50 15 63 23 61 37 -2 11 5 20
18 23 11 3 19 10 18 17 -1 6 2 22 6 35 6 19 4 28 -10 38 -17 12 -17 13 2 13
13 0 24 -13 36 -40 11 -27 23 -40 36 -40 11 0 25 -7 32 -15 10 -12 15 -12 36
2 23 15 26 14 49 -7 13 -13 22 -27 19 -31 -10 -17 13 -9 29 9 19 21 22 42 7
42 -19 0 -10 21 22 51 18 16 38 29 45 29 7 0 22 18 33 40 21 42 61 55 87 29
14 -14 33 -3 33 20 0 9 4 21 9 27 23 23 29 113 8 116 -55 8 -38 68 20 68 25 0
32 27 11 48 -22 22 5 36 43 23 61 -21 65 -10 15 42 -19 20 -37 50 -41 66 -3
16 -13 32 -21 35 -15 6 -10 26 6 26 5 0 28 -25 51 -55 39 -52 44 -55 85 -55
75 0 145 50 104 75 -33 21 27 55 83 46 23 -3 21 7 -5 29 -28 22 -18 36 13 19
20 -10 25 -9 41 11 26 32 -4 63 -78 85 -30 9 -54 20 -54 25 0 6 9 6 23 1 94
-36 211 -14 123 23 -19 8 -42 25 -50 39 -22 33 -57 47 -119 47 -29 0 -59 5
-67 10 -11 7 -4 10 26 10 43 0 90 33 62 43 -7 2 -10 7 -7 11 10 11 91 -34 124
-69 39 -41 98 -45 103 -7 2 13 18 36 34 51 24 21 29 32 23 47 -4 10 -7 34 -6
53 3 39 -11 35 -29 -9 -12 -29 -30 -41 -30 -20 0 6 -7 10 -15 10 -9 0 -12 6
-9 15 4 10 0 15 -12 15 -15 1 -14 4 7 15 69 37 48 53 -68 51 -110 -1 -108 13
3 24 92 9 137 44 110 85 -17 26 -104 31 -160 9 -21 -8 -40 -13 -43 -11 -10 11
53 47 82 47 46 0 62 23 30 40 -33 18 -32 30 3 30 41 0 64 30 64 85 1 25 5 48
10 51 14 9 9 64 -7 70 -8 4 -15 12 -15 20 0 8 -10 14 -25 14 -14 0 -25 -4 -25
-10 0 -5 -7 -10 -15 -10 -8 0 -15 8 -15 19 0 10 -7 24 -15 31 -8 7 -15 21 -15
32 0 24 -23 33 -48 19 -28 -15 -90 13 -169 75 -73 58 -78 66 -58 104 8 16 15
34 15 40 0 18 -61 11 -87 -10 -14 -11 -37 -20 -52 -20 -14 0 -45 -11 -69 -25
-48 -27 -78 -25 -62 5 14 25 13 30 -5 24 -19 -8 -20 19 -1 35 7 6 16 25 20 41
3 17 12 30 19 30 40 0 96 150 69 183 -6 6 -14 28 -19 47 -12 48 -52 54 -88 13
-22 -25 -26 -26 -35 -11 -6 9 -30 19 -59 23 -49 7 -49 7 -44 41 5 31 4 34 -20
34 -14 0 -29 5 -32 10 -9 14 13 40 32 40 8 0 33 14 54 31 45 36 51 71 19 112
-20 25 -20 25 6 46 15 12 31 21 35 21 5 0 29 16 55 35 25 19 53 35 63 35 10 0
26 10 37 21 19 21 19 22 -1 16 -59 -17 -75 -18 -105 -2 -38 19 -80 1 -115 -51
-54 -80 -70 -94 -123 -106 -53 -13 -58 -19 -52 -72 7 -73 -21 -81 -78 -21 -37
39 -49 45 -82 45 -33 0 -40 3 -40 20 0 11 -6 29 -12 40 -10 16 -9 25 5 49 35
59 17 131 -33 131 -17 0 -30 5 -30 10 0 6 -9 10 -20 10 -25 0 -43 41 -31 72
11 31 -32 66 -81 66 -20 0 -41 3 -46 6 -5 3 -23 -10 -41 -29z"/>
</g>
</svg>
